<?xml version="1.0" encoding="UTF-8"?>
<svg width="24px" height="23px" viewBox="0 0 24 23" version="1.1" xmlns="http://www.w3.org/2000/svg" xmlns:xlink="http://www.w3.org/1999/xlink">
    <title>Group 27 Copy 6</title>
    <g id="Design" stroke="none" stroke-width="1" fill="none" fill-rule="evenodd">
        <g id="Group-27-Copy-6" fill="#0088F4" fill-rule="nonzero">
            <path d="M1.41875927,13.0217467 C1.63902597,13.0759752 1.82397642,13.2208652 1.92540877,13.4187993 C2.11853242,13.912973 2.34645565,14.3937415 2.60741466,14.8575473 C3.54588542,16.4374629 4.90214715,17.7435028 6.53482793,18.6394883 C8.16750871,19.5354737 10.0171914,19.9886073 11.8908369,19.9516452 C15.262027,19.8530187 18.6293865,17.7728296 20.0947728,14.91837 C20.3567963,14.4086218 20.5657452,13.8744925 20.7183414,13.3240512 L21.2756335,13.3240512 L23.2165039,13.2253293 C23.0254648,14.3819153 22.6507045,15.5024069 22.1057501,16.546805 C20.0908217,20.4149911 15.8388856,23 11.5830298,23 L10.951796,23 C8.1859129,22.8361301 5.57485296,21.7020727 3.60125831,19.807458 C1.89548638,18.1929662 0.78807307,16.0728043 0.452281374,13.7794147 C0.450367508,13.7477248 0.450367508,13.7162059 0.452281374,13.6845148 C0.474203819,13.4643816 0.593733459,13.2644128 0.779378742,13.1371537 C0.965024025,13.0098858 1.19851484,12.9676917 1.41875927,13.0217467 Z M12.0437356,9.69913865 C12.5568435,9.73370955 13.0321364,9.97400788 13.3561249,10.3629392 L21.3493836,10.6589923 L23.087492,10.723559 L23.2319016,10.723559 C23.4399909,10.7266093 23.6383347,10.8104938 23.7823791,10.9565724 C23.926615,11.1028203 24.0049085,11.2990581 23.9996883,11.501721 C24.0011913,11.7035596 23.9197646,11.8974287 23.7739654,12.0408046 C23.6321659,12.1856946 23.4374744,12.2702607 23.2321733,12.2761912 L23.0489644,12.2761912 L21.2366959,12.3444844 L13.3561249,12.6405375 C13.0321632,13.0294558 12.5568435,13.2697619 12.0437356,13.3043381 C11.5308059,13.338909 11.0260717,13.1645282 10.6501043,12.8227019 C10.2742929,12.4810622 10.060832,12.0026798 10.060832,11.5017384 C10.060832,11.0007969 10.2743152,10.5224145 10.6501043,10.1807748 C11.0260895,9.83896583 11.5308059,9.66460592 12.0437356,9.69913865 Z M0.81887654,9.52369571 L0.943260947,9.53137727 L1.4382408,9.60357063 C1.63172523,9.63441148 1.80623536,9.73524183 1.92680681,9.88572817 C2.04755241,10.0362275 2.10548995,10.225689 2.08913508,10.4159964 C2.0618201,10.6779853 2.03850576,10.9247294 2.03850576,11.1751958 C2.03067552,11.3673644 1.94820412,11.5493684 1.80797245,11.6847705 C1.6675537,11.8200034 1.47982392,11.898296 1.28234865,11.9038884 L1.28234865,11.9038884 L0.779703621,11.9038884 L0.767886729,11.896444 C0.562928635,11.8945785 0.366847486,11.8140817 0.222264195,11.6724107 C0.0748971165,11.5256336 -0.00513746918,11.3271919 0.000255953893,11.1219695 C0.00790803155,10.8220206 0.0273963322,10.5069702 0.0625415499,10.1995639 C0.084638149,9.99418523 0.19146436,9.80642003 0.358665375,9.67949057 C0.525171556,9.55561048 0.736044643,9.50222922 0.943260947,9.53137727 Z M15.0359652,0.428697784 C16.2925005,0.782198384 17.4783944,1.34060474 18.5435387,2.07993482 C19.8194046,2.99231898 20.896174,4.14300499 21.7111336,5.46466271 C22.5260932,6.78632043 23.0628522,8.25252972 23.2904414,9.77821686 L20.9793625,9.69085687 C20.6569641,7.25972682 19.3922467,5.04065201 17.4444856,3.48841458 C15.6866903,2.11526145 13.5049128,1.35979296 11.2515585,1.34365455 C10.7589839,1.33975691 10.2666319,1.37026037 9.77842223,1.4346587 C9.74867044,1.43838689 9.71856855,1.43838689 9.68881988,1.4346587 C9.36885791,1.43720063 9.09968116,1.20215279 9.06734468,0.892199871 C9.03498325,0.582082095 9.25020617,0.299069908 9.56406161,0.238897931 C10.1070563,0.125187212 10.6582464,0.0528246626 11.2125989,0.0224913924 C12.5016488,-0.0583438228 13.7952419,0.0790929623 15.0359652,0.428697784 Z M1.66411962,5.90261231 C1.86470383,5.84008031 2.08253416,5.85939868 2.26817944,5.95582569 L2.26817944,5.95582569 L2.70871312,6.18731209 C2.88583333,6.28153959 3.01858217,6.43914071 3.07878327,6.62673671 C3.13915362,6.81435007 3.12245089,7.01736867 3.0321537,7.19327301 C2.91123038,7.43630359 2.79431127,7.69437933 2.69305264,7.95247242 C2.6359872,8.09193952 2.53785977,8.2117542 2.41084775,8.29699278 C2.28400944,8.38206215 2.13403229,8.42866502 1.97988167,8.43070515 C1.89636802,8.43103746 1.8135492,8.4181584 1.73438716,8.39273867 L1.73438716,8.39273867 L1.2589087,8.23718088 C1.05657851,8.16702217 0.893029823,8.01874402 0.806732381,7.8272479 C0.716433411,7.6438687 0.708082045,7.43220825 0.783418041,7.24257759 C0.911993435,6.91989614 1.05622931,6.59724507 1.21212146,6.28221202 C1.30518462,6.10224272 1.4676866,5.9656519 1.66411962,5.90261231 Z M4.20130449,2.77877137 C4.41165645,2.78656292 4.60982656,2.8768903 4.75075752,3.02923776 L4.75075752,3.02923776 L5.08602836,3.40883747 C5.21547229,3.55305065 5.2841989,3.73962716 5.27845717,3.93112328 C5.27271589,4.12262808 5.19268531,4.30480557 5.05471185,4.44139205 C4.85984666,4.63491849 4.65715123,4.83997174 4.47011628,5.04875158 C4.34136272,5.1953378 4.16024276,5.28871065 3.96328862,5.30989449 C3.76633447,5.33107832 3.56851179,5.27837687 3.41018326,5.16263149 L3.41018326,5.16263149 L3.02043952,4.85895173 C2.84558643,4.72505498 2.73771307,4.52474781 2.72414199,4.30851046 C2.70500288,4.10668923 2.76955114,3.90570528 2.9035204,3.7504772 L2.9035204,3.7504772 L3.14111512,3.49294648 C3.30223931,3.32200144 3.4685698,3.15328661 3.64000366,2.99127779 C3.78721485,2.84537268 3.99165182,2.76792566 4.20130449,2.77877137 Z M6.97651779,0.770432962 C7.1680558,0.684174894 7.38745396,0.677398497 7.5844081,0.751452977 C7.78153596,0.831268696 7.93655511,0.986327584 8.01311152,1.18036594 L8.01311152,1.18036594 L8.20797671,1.63215466 C8.27548381,1.80788547 8.27374227,2.00158544 8.20327902,2.17613189 C8.1326376,2.35067834 7.99832092,2.49353798 7.82607345,2.57742301 C7.59606572,2.68367622 7.36624951,2.80128271 7.14406756,2.92278933 C6.97130342,3.0148095 6.76913357,3.03971905 6.57826813,2.99260964 C6.38742495,2.9453267 6.22196102,2.82958133 6.11513481,2.66842282 L6.11513481,2.66842282 L5.85013018,2.25090218 C5.74016875,2.07735788 5.70641543,1.86807046 5.75652362,1.67013633 C5.80854706,1.47150373 5.94060107,1.30170336 6.12294144,1.19934592 C6.39976137,1.04750604 6.68804604,0.903292859 6.97651779,0.770432962 Z" id="Combined-Shape-Copy-2"></path>
        </g>
    </g>
</svg>