<?xml version="1.0" encoding="UTF-8"?>
<svg width="24px" height="24px" viewBox="0 0 24 24" version="1.1" xmlns="http://www.w3.org/2000/svg" xmlns:xlink="http://www.w3.org/1999/xlink">
    <title>Group 27 Copy 5</title>
    <g id="Design" stroke="none" stroke-width="1" fill="none" fill-rule="evenodd">
        <g id="Group-27-Copy-5" fill="#0088F4" fill-rule="nonzero">
            <path d="M0.857180641,11.1429026 L0.857180641,5.14287813 C0.925673591,3.36848722 2.57146356,3.35149123 3.9342695,3.42858542 C2.80274481,2.69139058 3.83133415,1.08867383 4.89436589,1.96281617 L6.6086488,3.67710889 C6.77089344,3.8380173 6.86215696,4.05708431 6.86215696,4.28573178 C6.86215696,4.51437924 6.77089344,4.73343646 6.6086488,4.89435467 C6.21432455,5.14288793 4.84288842,6.96012637 4.28574647,6.85717085 C4.02018446,6.83842089 3.77626159,6.704109 3.61840062,6.48963139 C3.46036333,6.2753448 3.4044973,6.00251266 3.46533965,5.74327732 C3.526182,5.4842183 3.69761029,5.26457822 3.93427929,5.14288303 L2.57147335,5.14288303 L2.57147335,11.1429075 C2.57147335,11.4492222 2.4080826,11.7321834 2.14290262,11.8852452 C1.87772265,12.0383071 1.55093624,12.0383071 1.28576117,11.8852452 C1.02058609,11.7321834 0.857180641,11.4492124 0.857180641,11.1429075 L0.857180641,11.1429026 Z M21.4285756,12.8571953 L21.4285756,18.8572198 L20.0657697,18.8572198 C21.1972944,18.1114045 20.168705,16.5173082 19.1056733,17.3914506 L17.3913904,19.1057433 C17.2291457,19.2666517 17.1378822,19.4857187 17.1378822,19.7143662 C17.1378822,19.9430136 17.2291457,20.1620709 17.3913904,20.3229891 C17.777104,20.5715223 19.1657712,22.3971853 19.7142927,22.2858052 C19.9798547,22.2670553 20.2237776,22.1327434 20.3816386,21.9182658 C20.5396759,21.7039792 20.5955419,21.4311471 20.5346995,21.1719117 C20.4738572,20.9128527 20.3024289,20.6932126 20.0657599,20.5715174 C21.4199454,20.6486214 23.0743754,20.631596 23.1428487,18.8572247 L23.1428487,12.8572002 C23.1428487,12.5508855 22.979458,12.2679244 22.714278,12.1148625 C22.449098,11.9618007 22.1223116,11.9618007 21.8571366,12.1148625 C21.5919615,12.2679244 21.4285658,12.5508953 21.4285658,12.8572002 L21.4285756,12.8571953 Z M24,1.71429271 L24,8.57146356 C24,9.0260548 23.819388,9.46211209 23.49796,9.7837134 C23.1763409,10.1051433 22.7402959,10.2857563 22.2857171,10.2857563 L9.97716575,10.2857563 C9.52257711,10.2857563 9.08652231,10.1051433 8.76511875,9.7837134 C8.44349968,9.4620925 8.26288284,9.026045 8.26288284,8.57146356 L8.26288284,1.71429271 C8.26288284,1.25970147 8.44349479,0.823644178 8.76511875,0.502042865 C9.0865468,0.180612982 9.5225869,0 9.97716575,0 L22.2857171,0 C22.7403057,0 23.1763605,0.180612982 23.49796,0.502042865 C23.819388,0.82366377 24,1.25971126 24,1.71429271 Z M16.1314414,2.72562745 C15.2677857,2.72562745 14.4697625,3.18634117 14.038155,3.93425279 C13.6063321,4.68217421 13.6063321,5.60358206 14.038155,6.35150348 C14.469787,7.0994249 15.2677857,7.56012882 16.1314414,7.56012882 C16.9949012,7.56012882 17.7929244,7.0994151 18.2247278,6.35150348 C18.6563597,5.60358206 18.6563597,4.68217421 18.2247278,3.93425279 C17.7929048,3.18633137 16.9949012,2.72562745 16.1314414,2.72562745 Z M15.7371172,15.4285364 L15.7371172,22.2857073 C15.7371172,22.7402985 15.5565052,23.1763558 15.2348812,23.4979571 C14.9134532,23.819387 14.4774131,24 14.0228342,24 L1.71428292,24 C1.25969427,24 0.823639472,23.819387 0.502039997,23.4979571 C0.18061195,23.1763362 0,22.7402887 0,22.2857073 L0,15.4285364 C0,14.9739452 0.18061195,14.5378879 0.502039997,14.2162866 C0.823659063,13.8948567 1.25970407,13.7142437 1.71428292,13.7142437 L14.0228342,13.7142437 C14.4774229,13.7142437 14.9134777,13.8948567 15.2348812,14.2162866 C15.5565003,14.5379075 15.7371172,14.973955 15.7371172,15.4285364 Z M7.86855858,16.4398712 L7.86836727,16.4398712 C7.00490745,16.4398712 6.20688427,16.9005849 5.77508089,17.6484965 C5.34344894,18.3964179 5.34344894,19.3178258 5.77508089,20.0657472 C6.20690386,20.8136686 7.00490745,21.2743725 7.86836727,21.2743725 C8.732023,21.2743725 9.53004619,20.8136588 9.96165365,20.0657472 C10.3934766,19.3178258 10.3934766,18.3964179 9.96165365,17.6484965 C9.5300217,16.9005751 8.732023,16.4398712 7.86836727,16.4398712 L7.86855858,16.4398712 Z" id="Shape-Copy-2"></path>
        </g>
    </g>
</svg>