<?xml version="1.0" encoding="UTF-8"?>
<svg width="24px" height="19px" viewBox="0 0 24 19" version="1.1" xmlns="http://www.w3.org/2000/svg" xmlns:xlink="http://www.w3.org/1999/xlink">
    <title>Group 34</title>
    <g id="Design" stroke="none" stroke-width="1" fill="none" fill-rule="evenodd">
        <g id="Group-34" fill="#0088F4" fill-rule="nonzero">
            <path d="M1.49555364,0 L20.5814251,0 C21.4360174,0 22.0769788,0.638123022 22.0769788,1.48886725 L22.0769788,1.77244639 L2.563914,1.77244639 C2.20779388,1.77244639 1.92295264,2.05602552 1.92295264,2.41052163 C1.92295264,2.76501773 2.20781445,3.04859686 2.563914,3.04859686 L22.0769788,3.04859686 L22.0769788,5.17549157 C22.0769788,5.95531201 21.4360174,6.66431104 20.5814251,6.66431104 L18.0889272,6.66431104 C17.2343349,6.66431104 16.5933735,7.30238628 16.5933735,8.08220672 L16.5933735,10.9179981 C16.5933735,11.6978185 17.2343349,12.3358937 18.0889272,12.3358937 L20.5814251,12.3358937 C21.4360174,12.3358937 22.0769788,13.0448928 22.0769788,13.8247132 L22.0769788,17.5111805 C22.0769788,18.3619248 21.4360174,19 20.5814251,19 L1.49555364,19 C0.640961356,19 0,18.3619248 0,17.5111805 L0,1.48881947 C0,0.638075239 0.640961356,0 1.49555364,0 L1.49555364,0 Z" id="Path"></path>
            <path d="M18.3024552,6.94777755 L22.718043,6.94777755 C23.430249,6.94777755 24,7.51492899 24,8.22396215 L24,10.7761607 C24,11.4851598 23.4302832,12.0523453 22.718043,12.0523453 L18.3024552,12.0523453 C17.5902493,12.0523453 17.0204982,11.4851939 17.0204982,10.7761607 L17.0204982,8.22396215 C17.0204982,7.51496312 17.590215,6.94777755 18.3024552,6.94777755 Z M19.2282921,8.57830808 C19.7267643,8.57830808 20.0828844,9.00374846 20.0828844,9.49997611 C20.0828844,9.99620376 19.7267643,10.3507203 19.2282921,10.3507203 C18.72982,10.3507203 18.3024552,9.99620376 18.3024552,9.49997611 C18.3024552,9.00374846 18.72982,8.57830808 19.2282921,8.57830808 Z" id="Shape"></path>
        </g>
    </g>
</svg>