<?xml version="1.0" encoding="UTF-8"?>
<svg width="32px" height="32px" viewBox="0 0 32 32" version="1.1" xmlns="http://www.w3.org/2000/svg" xmlns:xlink="http://www.w3.org/1999/xlink">
    <title>Shape</title>
    <g id="Design" stroke="none" stroke-width="1" fill="none" fill-rule="evenodd">
        <g id="Put-on-sale" transform="translate(-974.000000, -638.000000)" fill="#0088F4">
            <g id="Group-6-Copy" transform="translate(486.000000, 239.000000)">
                <g id="Group-9" transform="translate(466.000000, 279.000000)">
                    <path d="M30.1778181,141.333137 C32.3467008,141.333137 34.4268219,140.471535 35.9602779,138.937985 C37.4939878,137.404244 38.3556362,135.324081 38.3556362,133.155155 C38.3556362,130.986228 37.4940513,128.906319 35.9602779,127.372579 C34.4268219,125.838838 32.3467008,124.977172 30.1778181,124.977172 C28.0089353,124.977172 25.9288143,125.838774 24.3953583,127.372579 C22.8616484,128.906319 22,130.986228 22,133.155155 C22.0024801,135.323319 22.8648229,137.402022 24.3980884,138.935255 C25.9311,140.468297 28.0096973,141.330661 30.1778181,141.333137 L30.1778181,141.333137 Z M29.9516283,133.829516 C27.493794,133.00512 26.9779224,131.767702 26.9779224,130.875115 C26.9779224,129.540045 28.0089036,128.491138 29.4667407,128.237419 L29.4667407,127.110923 L30.8888319,127.110923 L30.8888319,128.254562 C32.3127009,128.548218 33.3776503,129.676237 33.3776503,131.022229 L31.9555591,131.022229 C31.9555591,130.251104 31.1321328,129.600109 30.1574689,129.600109 C29.2842016,129.600109 28.4000136,130.03811 28.4000136,130.875433 C28.4000136,131.718177 29.8012795,132.279457 30.4039444,132.481619 C32.8617787,133.306014 33.3776503,134.543433 33.3776503,135.43602 C33.3776503,136.77109 32.3466691,137.819997 30.8888319,138.073716 L30.8888319,139.200466 L29.4667407,139.200466 L29.4667407,138.056319 C28.0428718,137.762663 26.9779224,136.634643 26.9779224,135.288906 L28.4000136,135.288906 C28.4000136,136.059776 29.2234398,136.711026 30.1981037,136.711026 C31.0713711,136.711026 31.9555591,136.273024 31.9555591,135.435956 C31.9555591,134.592703 30.5542932,134.031424 29.9516283,133.829516 L29.9516283,133.829516 Z M29.2070589,144.825261 L41.214644,151.75808 C41.6320523,151.99816 42.1273398,152.06265 42.5923543,151.937645 C43.057134,151.812639 43.4534313,151.508075 43.6940655,151.091154 L52.8356269,135.257229 C54.1394327,132.998777 54.1205756,131.794122 53.8584176,129.965709 L52.8041349,122.61955 L52.8041349,122.619302 C52.7396526,122.161459 52.5707514,121.724684 52.3103395,121.342772 C51.7860362,120.566441 50.9335815,120.074369 49.9991079,120.0084 C49.5382965,119.973925 49.0754915,120.045851 48.6466673,120.218969 L41.757798,122.978699 C40.0432631,123.665949 38.9904407,124.2518 37.6866349,126.510252 L37.6454642,126.581682 L37.6452162,126.58193 C39.4857189,128.667807 40.368891,131.429252 40.0802569,134.19603 C39.791318,136.962935 38.3572776,139.482597 36.1256649,141.143452 C33.8940522,142.804433 31.0688539,143.455238 28.3352108,142.937641 C28.2689888,143.303718 28.3171055,143.68121 28.4731088,144.018739 C28.6291084,144.356542 28.8853108,144.638045 29.2067575,144.825039 L29.2070589,144.825261 Z M46.5212956,124.12903 C46.8243677,123.604221 47.3233885,123.221269 47.9089107,123.064504 C48.4942297,122.907752 49.1177327,122.989849 49.6425566,123.292686 C50.1673551,123.595764 50.5503,124.094795 50.7073155,124.680329 C50.8640642,125.26566 50.7819692,125.889175 50.4788907,126.41401 C50.1760662,126.938819 49.6767977,127.321771 49.0914661,127.47879 C48.5061471,127.635542 47.8826441,127.553445 47.3575662,127.250608 C46.8327677,126.94753 46.4498228,126.448499 46.2930613,125.862965 C46.1363125,125.277634 46.2184075,124.653865 46.5212384,124.12903 L46.5212956,124.12903 Z" id="Shape"></path>
                </g>
            </g>
        </g>
    </g>
</svg>