<?xml version="1.0" encoding="UTF-8"?>
<svg width="32px" height="32px" viewBox="0 0 32 32" version="1.1" xmlns="http://www.w3.org/2000/svg" xmlns:xlink="http://www.w3.org/1999/xlink">
    <title>Path</title>
    <g id="Design" stroke="none" stroke-width="1" fill="none" fill-rule="evenodd">
        <g id="Put-on-sale" transform="translate(-974.000000, -518.000000)" fill="#0088F4">
            <g id="Group-6-Copy" transform="translate(486.000000, 239.000000)">
                <g id="Group-9" transform="translate(466.000000, 279.000000)">
                    <path d="M38,0 C29.1797816,0 22,7.15969475 22,16 C22,24.8403052 29.1797816,32 38,32 C46.8202184,32 54,24.8403052 54,16 C54,7.15969475 46.8202184,0 38,0 L38,0 Z M39.4213506,16.4743298 C39.4213506,16.7664901 39.3119796,17.0588997 39.0932313,17.2414399 L35.0115283,21.3326941 C34.79278,21.5519405 34.5012836,21.6615606 34.2461612,21.6615606 C33.9910388,21.6615606 33.6995424,21.5519405 33.4807941,21.3326941 C33.0435462,20.8944504 33.0435462,20.2002477 33.4807941,19.7984738 L37.234601,16.0361181 L37.234601,8.25570338 C37.234601,7.63467658 37.7084717,7.15969475 38.3281193,7.15969475 C38.947735,7.15969475 39.4216376,7.63464461 39.4216376,8.25570338 L39.4213506,16.4743298 Z" id="Shape"></path>
                </g>
            </g>
        </g>
    </g>
</svg>